name D:\school\WTK\thesis\model\3dpredictsim\Results\test_WL_v2\Fal_s1_bCst_WL30_ig24_v4.mot
datacolumns 126
datarows 4
range 1.10028740 1.13329602
endheader
time	pelvis_tilt	pelvis_list	pelvis_rotation	pelvis_tx	pelvis_ty	pelvis_tz	hip_flexion_l	hip_adduction_l	hip_rotation_l	hip_flexion_r	hip_adduction_r	hip_rotation_r	knee_angle_l	knee_angle_r	ankle_angle_l	ankle_angle_r	subtalar_angle_l	subtalar_angle_r	mtp_angle_l	mtp_angle_r	lumbar_extension	lumbar_bending	lumbar_rotation	arm_flex_l	arm_add_l	arm_rot_l	arm_flex_r	arm_add_r	arm_rot_r	elbow_flex_l	elbow_flex_r	pro_sup_l	pro_sup_r	glut_med1_l/activation	glut_med2_l/activation	glut_med3_l/activation	glut_min1_l/activation	glut_min2_l/activation	glut_min3_l/activation	semimem_l/activation	semiten_l/activation	bifemlh_l/activation	bifemsh_l/activation	sar_l/activation	add_long_l/activation	add_brev_l/activation	add_mag1_l/activation	add_mag2_l/activation	add_mag3_l/activation	tfl_l/activation	pect_l/activation	grac_l/activation	glut_max1_l/activation	glut_max2_l/activation	glut_max3_l/activation	iliacus_l/activation	psoas_l/activation	quad_fem_l/activation	gem_l/activation	peri_l/activation	rect_fem_l/activation	vas_med_l/activation	vas_int_l/activation	vas_lat_l/activation	med_gas_l/activation	lat_gas_l/activation	soleus_l/activation	tib_post_l/activation	flex_dig_l/activation	flex_hal_l/activation	tib_ant_l/activation	per_brev_l/activation	per_long_l/activation	per_tert_l/activation	ext_dig_l/activation	ext_hal_l/activation	ercspn_l/activation	intobl_l/activation	extobl_l/activation	glut_med1_r/activation	glut_med2_r/activation	glut_med3_r/activation	glut_min1_r/activation	glut_min2_r/activation	glut_min3_r/activation	semimem_r/activation	semiten_r/activation	bifemlh_r/activation	bifemsh_r/activation	sar_r/activation	add_long_r/activation	add_brev_r/activation	add_mag1_r/activation	add_mag2_r/activation	add_mag3_r/activation	tfl_r/activation	pect_r/activation	grac_r/activation	glut_max1_r/activation	glut_max2_r/activation	glut_max3_r/activation	iliacus_r/activation	psoas_r/activation	quad_fem_r/activation	gem_r/activation	peri_r/activation	rect_fem_r/activation	vas_med_r/activation	vas_int_r/activation	vas_lat_r/activation	med_gas_r/activation	lat_gas_r/activation	soleus_r/activation	tib_post_r/activation	flex_dig_r/activation	flex_hal_r/activation	tib_ant_r/activation	per_brev_r/activation	per_long_r/activation	per_tert_r/activation	ext_dig_r/activation	ext_hal_r/activation	ercspn_r/activation	intobl_r/activation	extobl_r/activation	
          1.10028740	         -2.48803671	         -1.93568579	          5.12562004	          1.37535925	          0.90757006	         -0.00209805	        -18.45021668	         -1.26857649	          4.68109645	         29.90740777	          2.98286551	         -2.93667644	         -4.80578395	        -13.84242390	          1.08069631	          7.53974465	          9.85707027	         -4.03954332	         20.83718065	         -0.12994248	         -2.39886260	         -0.03176501	         -2.05386003	          3.37851926	        -13.47186469	          5.70494265	         -9.22055841	        -13.66604720	          3.55893414	         40.40789466	         20.39570938	         86.51662706	         86.51662706	          0.25020440	          0.11874140	          0.08338295	          0.28813021	          0.20599221	          0.11854337	          0.05207138	          0.05037131	          0.05027552	          0.06585182	          0.13224681	          0.05028648	          0.05029349	          0.05036566	          0.05119762	          0.05057161	          0.35326412	          0.05074881	          0.05192261	          0.06426515	          0.05652927	          0.05247629	          0.48329906	          0.64528459	          0.05147328	          0.05310693	          0.06882716	          0.22710633	          0.05094257	          0.05097943	          0.05092795	          0.32401908	          0.44182770	          0.30603947	          0.28892775	          0.34394865	          0.43550036	          0.05007675	          0.05957321	          0.16212591	          0.05033502	          0.05010743	          0.05037793	          0.05003053	          0.05004177	          0.05006779	          0.11137414	          0.05031007	          0.05919418	          0.05019610	          0.05027150	          0.05190938	          0.18066049	          0.05941700	          0.09192359	          0.05087187	          0.05216137	          0.09658069	          0.15063391	          0.19831127	          0.16358690	          0.13500078	          0.05924355	          0.10432566	          0.09144559	          0.06960589	          0.07121920	          0.13580199	          0.05024442	          0.05027772	          0.26536819	          0.07612995	          0.06546778	          0.05046072	          0.09795845	          0.09823076	          0.08210688	          0.05392549	          0.05213441	          0.05914243	          0.05012118	          0.05052525	          0.05064232	          0.52266166	          0.29732659	          0.19285611	          0.24000060	          0.49711962	          0.34163903	          0.07078230	          0.12480719	          0.12911831	
          1.11129027	         -2.48349092	         -2.01772539	          5.43191896	          1.39165149	          0.90645981	         -0.00192251	        -18.39921863	         -1.57510434	          4.47123622	         29.40284882	          3.28787685	         -2.71869481	         -6.63779742	        -13.77869967	          0.40368493	          7.02753170	         10.62769554	         -4.42678943	         21.88418035	         -0.11308352	         -2.22531465	          0.18047162	         -2.11041739	          3.15322252	        -13.48473489	          6.01079885	        -10.12451381	        -13.67726713	          3.62184905	         41.73845323	         20.15915142	         86.51662706	         86.51662706	          0.21158733	          0.10038416	          0.07052080	          0.24371270	          0.17418212	          0.10026968	          0.05213033	          0.05077836	          0.05078082	          0.05581407	          0.11207859	          0.08825563	          0.05713592	          0.06024102	          0.05623254	          0.06651341	          0.29875065	          0.09370066	          0.05317121	          0.05800409	          0.05307163	          0.05294589	          0.40853444	          0.56725349	          0.05106461	          0.05868159	          0.05968873	          0.19216680	          0.11347494	          0.11662915	          0.10579188	          0.27382007	          0.37343726	          0.27190425	          0.28230502	          0.31749233	          0.41204351	          0.05005681	          0.05714833	          0.16619112	          0.05028283	          0.05007456	          0.05027882	          0.05003670	          0.06997499	          0.05004834	          0.09425498	          0.05917753	          0.05029152	          0.06108286	          0.05967549	          0.05166400	          0.15329545	          0.05082414	          0.07780985	          0.05060496	          0.05081025	          0.10947346	          0.12803973	          0.24861792	          0.19345195	          0.12874255	          0.05055156	          0.09385974	          0.07825909	          0.05928418	          0.06035395	          0.12902579	          0.05204062	          0.05348240	          0.45266328	          0.23811041	          0.15437764	          0.07202093	          0.19564872	          0.19253931	          0.16823221	          0.05001438	          0.05003071	          0.05000624	          0.05019225	          0.05090325	          0.05047419	          0.58100621	          0.25166540	          0.19622629	          0.42140463	          0.54174380	          0.30475313	          0.05986809	          0.10548710	          0.10912804	
          1.12229315	         -2.47384738	         -2.09334127	          5.71697538	          1.40826415	          0.90539631	         -0.00175188	        -18.27548234	         -1.87612502	          4.25205410	         28.77211189	          3.54827451	         -2.44915838	         -8.61126785	        -14.27622254	         -0.43146459	          6.44020524	         11.36512950	         -4.83229622	         22.80842082	         -0.14899195	         -2.02953431	          0.39352060	         -2.15726478	          2.86782420	        -13.50093651	          6.30328010	        -11.05412628	        -13.68221870	          3.68307805	         42.99184318	         19.96139123	         86.51662706	         86.51662706	          0.22499350	          0.08486497	          0.05963918	          0.20634550	          0.14730399	          0.08480634	          0.05164593	          0.05145856	          0.05142415	          0.05033107	          0.09510904	          0.11901264	          0.10422144	          0.06412190	          0.06166861	          0.05873841	          0.25297208	          0.13369886	          0.05605178	          0.05553347	          0.05382019	          0.05563805	          0.34544732	          0.54566398	          0.05542047	          0.05189396	          0.05056393	          0.16244289	          0.13628654	          0.13333906	          0.12055681	          0.23139411	          0.31559485	          0.22977986	          0.23950472	          0.26930731	          0.34921050	          0.05005764	          0.05562546	          0.18007752	          0.05023578	          0.05007614	          0.05028713	          0.05273868	          0.05917394	          0.05789852	          0.21692194	          0.05019948	          0.22071437	          0.05170251	          0.05057733	          0.24223303	          0.14659900	          0.05040927	          0.08657430	          0.05018934	          0.05319056	          0.09395306	          0.25292901	          0.21142367	          0.16452337	          0.14510317	          0.05098875	          0.11905200	          0.10990402	          0.05045919	          0.05120513	          0.12852880	          0.05762007	          0.05189151	          0.38269327	          0.20139161	          0.22671245	          0.06088487	          0.16550333	          0.16288411	          0.14230482	          0.06169289	          0.06450257	          0.05936606	          0.05924794	          0.05920636	          0.05924890	          0.49100152	          0.26753069	          0.16591784	          0.35635061	          0.52497314	          0.25760282	          0.05074908	          0.11383706	          0.09222684	
          1.13329602	         -2.46102846	         -2.16747931	          5.97171493	          1.42503807	          0.90438090	         -0.00157014	        -18.06197972	         -2.17125495	          4.02723916	         28.01241014	          3.77543613	         -2.16977378	        -10.73559784	        -14.81196297	         -1.41417073	          6.00995607	         12.04611021	         -5.23001739	         23.55227780	         -0.15413320	         -1.82786491	          0.61245478	         -2.19567546	          2.54182039	        -13.52007308	          6.57612712	        -11.96728409	        -13.68362646	          3.75463134	         44.15913784	         19.77436962	         86.51662706	         86.51662706	          0.24838034	          0.07175997	          0.05050617	          0.32225436	          0.12463347	          0.07177753	          0.05171960	          0.05026001	          0.05022454	          0.05043952	          0.08108585	          0.11000023	          0.08831209	          0.05458542	          0.05379458	          0.05103706	          0.25604020	          0.11491389	          0.05097107	          0.05140401	          0.05150868	          0.05164637	          0.29215206	          0.50861888	          0.05015153	          0.05135667	          0.05187170	          0.14276150	          0.11742238	          0.11821540	          0.12558826	          0.19554075	          0.26670516	          0.19417616	          0.20255929	          0.22794242	          0.29534964	          0.05004291	          0.10219683	          0.17467366	          0.05022577	          0.05010628	          0.05025464	          0.06453401	          0.05002957	          0.05005123	          0.26959515	          0.26228691	          0.31399861	          0.23195173	          0.23672703	          0.20532398	          0.12393256	          0.08332564	          0.07332256	          0.08316502	          0.05676749	          0.07945690	          0.21378714	          0.17889737	          0.13946697	          0.16004734	          0.05057392	          0.10091919	          0.09517667	          0.20493229	          0.15664423	          0.12440243	          0.05015991	          0.05019034	          0.32354335	          0.17049053	          0.19214603	          0.05148517	          0.13998859	          0.13781204	          0.12038116	          0.05217247	          0.05457834	          0.05017671	          0.05009244	          0.05023959	          0.05029575	          0.61697757	          0.33523233	          0.18799868	          0.60882747	          0.59618730	          0.37259622	          0.07505902	          0.09820924	          0.07794477	
